<svg width="18" height="21" viewBox="0 0 18 21" fill="none" xmlns="http://www.w3.org/2000/svg">
<path d="M9 1V3" stroke="#3A434B" stroke-width="2" stroke-linecap="round"/>
<path d="M9 3C7.4087 3 5.88258 3.63214 4.75736 4.75736C3.63214 5.88258 3 7.4087 3 9V15C2 15 1 16 1 17H9" stroke="#3A434B" stroke-width="2" stroke-linecap="round"/>
<path d="M9 3C10.5913 3 12.1174 3.63214 13.2426 4.75736C14.3679 5.88258 15 7.4087 15 9V15C16 15 17 16 17 17H9" stroke="#3A434B" stroke-width="2" stroke-linecap="round"/>
<path d="M7 18C7 18.5304 7.21071 19.0391 7.58579 19.4142C7.96086 19.7893 8.46957 20 9 20C9.53043 20 10.0391 19.7893 10.4142 19.4142C10.7893 19.0391 11 18.5304 11 18" stroke="#3A434B" stroke-width="2" stroke-linecap="round"/>
</svg>
