<svg width="28" height="28" viewBox="0 0 28 28" fill="none" xmlns="http://www.w3.org/2000/svg">
<circle opacity="0.4" cx="14" cy="14" r="13" fill="#1F6AEC"/>
<circle cx="14" cy="14" r="8" fill="white"/>
<path d="M14 24C8.477 24 4 19.523 4 14C4 8.477 8.477 4 14 4C19.523 4 24 8.477 24 14C24 19.523 19.523 24 14 24ZM14 22C16.1217 22 18.1566 21.1571 19.6569 19.6569C21.1571 18.1566 22 16.1217 22 14C22 11.8783 21.1571 9.84344 19.6569 8.34315C18.1566 6.84285 16.1217 6 14 6C11.8783 6 9.84344 6.84285 8.34315 8.34315C6.84285 9.84344 6 11.8783 6 14C6 16.1217 6.84285 18.1566 8.34315 19.6569C9.84344 21.1571 11.8783 22 14 22ZM13 10C13 9.44772 13.4477 9 14 9C14.5523 9 15 9.44772 15 10C15 10.5523 14.5523 11 14 11C13.4477 11 13 10.5523 13 10ZM13 14C13 13.4477 13.4477 13 14 13C14.5523 13 15 13.4477 15 14V18C15 18.5523 14.5523 19 14 19C13.4477 19 13 18.5523 13 18V14Z" fill="#162A56" fill-opacity="0.5"/>
</svg>
