<svg width="20" height="20" viewBox="0 0 20 20" fill="none" xmlns="http://www.w3.org/2000/svg">
<path d="M9.92187 12.1877C10.502 12.1877 11.0584 11.9573 11.4687 11.547C11.8789 11.1368 12.1094 10.5804 12.1094 10.0002C12.1094 9.93616 12.1064 9.87268 12.101 9.80999L9.73163 12.1793C9.79433 12.1848 9.85761 12.1877 9.92187 12.1877ZM17.1625 3.23381L16.3281 2.40022C16.2988 2.37094 16.2591 2.35449 16.2177 2.35449C16.1762 2.35449 16.1365 2.37094 16.1072 2.40022L13.9721 4.53596C12.7942 3.93401 11.4702 3.63303 9.99999 3.63303C6.24608 3.63303 3.4453 5.58811 1.59765 9.49827C1.52338 9.65553 1.48486 9.82728 1.48486 10.0012C1.48486 10.1751 1.52338 10.3469 1.59765 10.5041C2.33593 12.0592 3.22493 13.3056 4.26464 14.2434L2.19843 16.3088C2.16915 16.3381 2.1527 16.3778 2.1527 16.4193C2.1527 16.4607 2.16915 16.5004 2.19843 16.5297L3.03222 17.3635C3.06152 17.3928 3.10124 17.4092 3.14267 17.4092C3.18409 17.4092 3.22382 17.3928 3.25312 17.3635L17.1625 3.45491C17.177 3.4404 17.1885 3.42316 17.1964 3.4042C17.2043 3.38523 17.2083 3.36489 17.2083 3.34436C17.2083 3.32383 17.2043 3.3035 17.1964 3.28453C17.1885 3.26556 17.177 3.24833 17.1625 3.23381ZM6.48437 10.0002C6.48431 9.40648 6.63805 8.82285 6.93059 8.30619C7.22314 7.78952 7.64452 7.35744 8.15369 7.05203C8.66286 6.74663 9.24245 6.57831 9.836 6.56348C10.4296 6.54865 11.0168 6.68781 11.5406 6.96741L10.591 7.91702C10.208 7.79439 9.79869 7.77962 9.40788 7.87433C9.01707 7.96904 8.6599 8.16957 8.37556 8.45391C8.09121 8.73826 7.89069 9.09543 7.79598 9.48624C7.70127 9.87705 7.71604 10.2864 7.83866 10.6694L6.88905 11.619C6.62257 11.1211 6.48353 10.5649 6.48437 10.0002V10.0002Z" fill="#6D7A98"/>
<path d="M18.4023 9.49609C17.7148 8.04818 16.8965 6.86751 15.9474 5.9541L13.1322 8.76953C13.3695 9.38987 13.4221 10.0657 13.2836 10.7152C13.1452 11.3648 12.8216 11.9604 12.3519 12.4301C11.8823 12.8997 11.2867 13.2233 10.6371 13.3618C9.98749 13.5003 9.3117 13.4477 8.69136 13.2104L6.30347 15.5982C7.41128 16.1109 8.64344 16.3672 9.99995 16.3672C13.7539 16.3672 16.5546 14.4121 18.4023 10.502C18.4766 10.3447 18.5151 10.1729 18.5151 9.99902C18.5151 9.82511 18.4766 9.65335 18.4023 9.49609V9.49609Z" fill="#6D7A98"/>
</svg>
