<svg width="24" height="24" viewBox="0 0 24 24" fill="none" xmlns="http://www.w3.org/2000/svg">
<path d="M7.33325 15.1988C7.127 15.392 6.91887 15.1613 6.91887 15.1613C6.91887 15.1613 3.45387 11.4901 3.22887 11.3251C2.912 11.0945 2.23325 10.7326 1.5545 11.432C1.27137 11.7226 0.81012 12.3695 1.667 13.412C1.85262 13.637 7.25074 19.3257 7.56574 19.6332C7.56574 19.6332 10.0595 22.0595 11.5689 22.9726C11.987 23.2257 12.4576 23.4938 13.007 23.6813C13.5545 23.8688 14.1732 23.9982 14.8257 23.9982C15.4782 24.0057 16.1551 23.8801 16.7945 23.6457C17.4339 23.4095 18.0301 23.0663 18.572 22.6707C18.7051 22.5695 18.8401 22.4682 18.9657 22.3595L19.3295 22.0595C19.5779 21.8495 19.8169 21.6287 20.0457 21.3976C20.5014 20.9438 20.912 20.4582 21.2739 19.9613C21.6339 19.4626 21.9395 18.947 22.1832 18.4332C22.427 17.9195 22.5976 17.4038 22.7007 16.9163C22.8095 16.4307 22.8395 15.9713 22.8226 15.5701C22.8189 15.1688 22.7382 14.8257 22.6726 14.552C22.5976 14.2782 22.517 14.0738 22.4532 13.9388C22.3914 13.8038 22.3576 13.7326 22.3576 13.7326C22.2714 13.4907 22.1889 13.2601 22.1157 13.052C21.8397 12.2705 21.5578 11.4911 21.2701 10.7138L21.272 10.7195C20.3626 8.25009 19.3857 5.70384 19.3857 5.70384C19.2376 5.25571 18.692 5.10009 18.2907 5.38884C17.132 6.22134 16.7776 7.43634 17.1864 8.73196L18.2345 11.6045C18.3826 11.9251 17.9739 12.2963 17.7001 12.0732C16.8395 11.372 15.0189 9.43884 15.0189 9.43884C14.2051 8.65884 9.61325 3.95071 9.30575 3.66384C8.687 3.08821 7.90699 2.79196 7.31262 3.22884C6.70512 3.67509 6.53637 4.36509 7.12325 5.11884C7.28262 5.32321 11.9232 10.2263 11.9232 10.2263C12.1932 10.5095 11.8745 10.9107 11.5764 10.6351C11.5764 10.6351 5.80325 4.61259 5.54262 4.33134C4.952 3.69009 4.00325 3.54946 3.44075 4.07821C2.89137 4.59384 2.9045 5.43946 3.5045 6.10321C3.69575 6.31321 7.76262 10.607 9.39012 12.3657C9.49887 12.4838 9.58324 12.6413 9.42199 12.7895C9.42012 12.7913 9.25699 12.9676 9.04699 12.7426C8.60449 12.2701 4.18512 7.66509 3.9395 7.41571C3.37512 6.84384 2.61762 6.57384 2.00825 7.13071C1.45325 7.63884 1.36325 8.52572 2.00075 9.15197L7.35387 14.8107C7.35387 14.8107 7.52825 15.017 7.33325 15.1988V15.1988Z" fill="#70534A"/>
<path d="M16.0241 10.4814L16.4759 10.9652C16.4759 10.9652 13.8903 13.4608 15.6528 17.2933C15.6528 17.2933 15.8816 17.7789 15.5816 17.8596C15.5816 17.8596 15.3191 18.0058 15.0191 17.2596C15.0191 17.2577 13.2397 13.6183 16.0241 10.4814V10.4814Z" fill="#35201A"/>
<path d="M11.8652 2.19385C11.8652 2.19385 12.9546 2.35885 13.9634 3.43885C14.9721 4.51885 15.439 5.9101 15.439 5.9101" stroke="#444444" stroke-width="0.75" stroke-miterlimit="10" stroke-linecap="round"/>
<path d="M14.5195 0.9375C14.5195 0.9375 15.4327 1.39687 16.1377 2.53125C16.8427 3.66562 17.0133 4.97812 17.0133 4.97812" stroke="#444444" stroke-width="0.75" stroke-miterlimit="10" stroke-linecap="round"/>
<path d="M6.69535 21.0433C6.69535 21.0433 5.5966 21.1164 4.37973 20.2764C3.16285 19.4364 2.40723 18.1802 2.40723 18.1802" stroke="#444444" stroke-width="0.75" stroke-miterlimit="10" stroke-linecap="round"/>
<path d="M5.91215 22.886C5.91215 22.886 4.89215 22.9291 3.72215 22.2823C2.55215 21.6354 1.76465 20.5723 1.76465 20.5723" stroke="#444444" stroke-width="0.75" stroke-miterlimit="10" stroke-linecap="round"/>
</svg>
